<?xml version="1.0" encoding="UTF-8" standalone="no"?>
<!-- Generator: Adobe Illustrator 19.0.0, SVG Export Plug-In . SVG Version: 6.00 Build 0)  -->

<svg
   xmlns:dc="http://purl.org/dc/elements/1.1/"
   xmlns:cc="http://creativecommons.org/ns#"
   xmlns:rdf="http://www.w3.org/1999/02/22-rdf-syntax-ns#"
   xmlns:svg="http://www.w3.org/2000/svg"
   xmlns="http://www.w3.org/2000/svg"
   xmlns:sodipodi="http://sodipodi.sourceforge.net/DTD/sodipodi-0.dtd"
   xmlns:inkscape="http://www.inkscape.org/namespaces/inkscape"
   version="1.1"
   id="Layer_1"
   x="0px"
   y="0px"
   viewBox="0 0 509.287 509.287"
   style="enable-background:new 0 0 509.287 509.287;"
   xml:space="preserve"
   sodipodi:docname="error.svg"
   inkscape:version="0.92.2 2405546, 2018-03-11"><metadata
   id="metadata63"><rdf:RDF><cc:Work
       rdf:about=""><dc:format>image/svg+xml</dc:format><dc:type
         rdf:resource="http://purl.org/dc/dcmitype/StillImage" /></cc:Work></rdf:RDF></metadata><defs
   id="defs61" /><sodipodi:namedview
   pagecolor="#ffffff"
   bordercolor="#666666"
   borderopacity="1"
   objecttolerance="10"
   gridtolerance="10"
   guidetolerance="10"
   inkscape:pageopacity="0"
   inkscape:pageshadow="2"
   inkscape:window-width="1920"
   inkscape:window-height="1048"
   id="namedview59"
   showgrid="false"
   inkscape:zoom="0.92678591"
   inkscape:cx="-26.153382"
   inkscape:cy="247.22885"
   inkscape:window-x="0"
   inkscape:window-y="0"
   inkscape:window-maximized="1"
   inkscape:current-layer="g4652" />




<g
   id="g4652"><g
     id="g932"
     inkscape:export-xdpi="96"
     inkscape:export-ydpi="96"><circle
       inkscape:export-ydpi="96"
       inkscape:export-xdpi="96"
       transform="rotate(-5.2681558)"
       style="fill:#f4b83f;fill-opacity:1"
       cx="230.18765"
       cy="276.94904"
       r="254.644"
       id="circle2" /><rect
       inkscape:export-ydpi="96"
       inkscape:export-xdpi="96"
       x="219.041"
       y="386.543"
       style="fill:#48373e"
       width="71.544"
       height="81.038"
       id="rect4" /><path
       inkscape:export-ydpi="96"
       inkscape:export-xdpi="96"
       style="fill:#ececec"
       d="M254.644,16.275L254.644,16.275c-50.861,0-92.228,41.367-92.228,92.228v146.14  c0,50.861,41.367,92.228,92.228,92.228l0,0c50.861,0,92.228-41.367,92.228-92.228v-146.14  C346.872,57.642,305.505,16.275,254.644,16.275z"
       id="path6" /><g
       inkscape:export-ydpi="96"
       inkscape:export-xdpi="96"
       id="g12"
       style="fill:#2b0000">
	<path
   style="fill:#2b0000"
   d="M254.644,398.411c-77.309,0-140.376-63.068-140.376-140.376v-94.601   c0-6.442,5.425-11.868,11.868-11.868c6.442,0,11.868,5.425,11.868,11.868v94.601c0,64.424,52.217,116.641,116.641,116.641   s116.641-52.217,116.641-116.641v-94.601c0-6.442,5.425-11.868,11.868-11.868s11.868,5.425,11.868,11.868v94.601   C395.02,335.343,331.952,398.411,254.644,398.411z"
   id="path8" />
	<rect
   x="161.738"
   y="455.375"
   style="fill:#2b0000"
   width="185.812"
   height="23.735"
   id="rect10" />
</g><g
       inkscape:export-ydpi="96"
       inkscape:export-xdpi="96"
       id="g26"
       style="fill:#2b1100">
	<path
   style="fill:#2b1100"
   d="M214.633,118.675h-52.217v29.16h52.217c8.138,0,14.58-6.442,14.58-14.58   C229.213,125.118,222.771,118.675,214.633,118.675z"
   id="path14" />
	<path
   style="fill:#2b1100"
   d="M214.633,167.163h-52.217v29.16h52.217c8.138,0,14.58-6.442,14.58-14.58   C229.213,173.605,222.771,167.163,214.633,167.163z"
   id="path16" />
	<path
   style="fill:#2b1100"
   d="M214.633,215.65h-52.217v29.16h52.217c8.138,0,14.58-6.442,14.58-14.58   C229.213,222.093,222.771,215.65,214.633,215.65z"
   id="path18" />
	<path
   style="fill:#2b1100"
   d="M294.654,244.811h52.217v-29.16h-52.217c-8.138,0-14.58,6.442-14.58,14.58   C280.074,238.029,286.517,244.811,294.654,244.811z"
   id="path20" />
	<path
   style="fill:#2b1100"
   d="M294.654,196.323h52.217v-29.16h-52.217c-8.138,0-14.58,6.442-14.58,14.58   C280.074,189.881,286.517,196.323,294.654,196.323z"
   id="path22" />
	<path
   style="fill:#2b1100"
   d="M294.654,147.836h52.217v-29.16h-52.217c-8.138,0-14.58,6.442-14.58,14.58   S286.517,147.836,294.654,147.836z"
   id="path24" />
</g><path
       style="fill:#aa0000;stroke-width:19.69230843"
       inkscape:connector-curvature="0"
       d="m 254.64399,510.64399 c 70.89232,0 133.9077,-29.53846 181.16924,-74.83077 47.26153,-47.26154 74.83076,-110.27692 74.83076,-181.16923 0,-70.89231 -29.53846,-133.90769 -74.83076,-181.169226 C 388.55169,26.213227 325.53631,-1.3560029 254.64399,-1.3560029 183.75168,-1.3560029 120.7363,28.182457 73.474756,73.474764 26.213216,120.7363 -1.3560142,183.75168 -1.3560142,254.64399 c 0,70.89231 29.5384602,133.90769 74.8307702,181.16923 47.261544,45.29231 110.276924,74.83077 181.169234,74.83077 z M 169.96707,114.82861 c -3.93846,-3.93847 -3.93846,-9.84616 0,-13.78462 l 1.96923,-1.969231 c 25.6,-13.784615 53.16923,-21.661535 82.70769,-21.661535 49.23078,0 92.55386,19.692309 126.03078,51.199996 31.50769,31.50769 51.2,76.8 51.2,126.03077 0,29.53846 -7.87693,57.10769 -21.66154,82.70769 l -1.96923,1.96923 c -3.93846,3.93846 -9.84615,3.93846 -13.78462,0 L 282.21323,227.07476 Z M 77.413216,254.64399 c 0,-29.53846 7.87692,-57.10769 21.661544,-82.70769 l 1.96923,-1.96923 c 3.93846,-3.93846 9.84615,-3.93846 13.78462,0 l 112.24615,112.24615 112.24616,112.24615 c 3.93846,3.93847 3.93846,9.84616 0,13.78462 l -1.96923,1.96923 c -25.6,13.78461 -53.16923,21.66154 -82.7077,21.66154 -49.23077,0 -92.55385,-19.69231 -126.03077,-51.2 -31.50769,-33.47692 -51.200004,-76.8 -51.200004,-126.03077 z"
       id="path907" /></g></g>
<g
   id="g28">
</g>
<g
   id="g30">
</g>
<g
   id="g32">
</g>
<g
   id="g34">
</g>
<g
   id="g36">
</g>
<g
   id="g38">
</g>
<g
   id="g40">
</g>
<g
   id="g42">
</g>
<g
   id="g44">
</g>
<g
   id="g46">
</g>
<g
   id="g48">
</g>
<g
   id="g50">
</g>
<g
   id="g52">
</g>
<g
   id="g54">
</g>
<g
   id="g56">
</g>
</svg>