<?xml version="1.0" encoding="UTF-8" standalone="no"?>
<!-- Generator: Adobe Illustrator 19.0.0, SVG Export Plug-In . SVG Version: 6.00 Build 0)  -->

<svg
   xmlns:dc="http://purl.org/dc/elements/1.1/"
   xmlns:cc="http://creativecommons.org/ns#"
   xmlns:rdf="http://www.w3.org/1999/02/22-rdf-syntax-ns#"
   xmlns:svg="http://www.w3.org/2000/svg"
   xmlns="http://www.w3.org/2000/svg"
   xmlns:sodipodi="http://sodipodi.sourceforge.net/DTD/sodipodi-0.dtd"
   xmlns:inkscape="http://www.inkscape.org/namespaces/inkscape"
   version="1.1"
   id="Layer_1"
   x="0px"
   y="0px"
   viewBox="0 0 509.287 509.287"
   style="enable-background:new 0 0 509.287 509.287;"
   xml:space="preserve"
   sodipodi:docname="podsearchbot.svg"
   inkscape:version="0.92.2 2405546, 2018-03-11"><metadata
   id="metadata63"><rdf:RDF><cc:Work
       rdf:about=""><dc:format>image/svg+xml</dc:format><dc:type
         rdf:resource="http://purl.org/dc/dcmitype/StillImage" /></cc:Work></rdf:RDF></metadata><defs
   id="defs61" /><sodipodi:namedview
   pagecolor="#ffffff"
   bordercolor="#666666"
   borderopacity="1"
   objecttolerance="10"
   gridtolerance="10"
   guidetolerance="10"
   inkscape:pageopacity="0"
   inkscape:pageshadow="2"
   inkscape:window-width="1920"
   inkscape:window-height="1048"
   id="namedview59"
   showgrid="false"
   inkscape:zoom="1.3106732"
   inkscape:cx="182.5764"
   inkscape:cy="272.69608"
   inkscape:window-x="0"
   inkscape:window-y="0"
   inkscape:window-maximized="1"
   inkscape:current-layer="g4652" />




<g
   id="g4652"><circle
     id="circle2"
     r="254.644"
     cy="276.94904"
     cx="230.18765"
     style="fill:#f4b83f;fill-opacity:1"
     transform="rotate(-5.2681558)"
     inkscape:export-xdpi="96"
     inkscape:export-ydpi="96" /><rect
     id="rect4"
     height="81.038"
     width="71.544"
     style="fill:#48373e"
     y="386.543"
     x="219.041"
     inkscape:export-xdpi="96"
     inkscape:export-ydpi="96" /><path
     id="path6"
     d="M254.644,16.275L254.644,16.275c-50.861,0-92.228,41.367-92.228,92.228v146.14  c0,50.861,41.367,92.228,92.228,92.228l0,0c50.861,0,92.228-41.367,92.228-92.228v-146.14  C346.872,57.642,305.505,16.275,254.644,16.275z"
     style="fill:#ececec"
     inkscape:export-xdpi="96"
     inkscape:export-ydpi="96" /><g
     style="fill:#2b0000"
     id="g12"
     inkscape:export-xdpi="96"
     inkscape:export-ydpi="96">
	<path
   id="path8"
   d="M254.644,398.411c-77.309,0-140.376-63.068-140.376-140.376v-94.601   c0-6.442,5.425-11.868,11.868-11.868c6.442,0,11.868,5.425,11.868,11.868v94.601c0,64.424,52.217,116.641,116.641,116.641   s116.641-52.217,116.641-116.641v-94.601c0-6.442,5.425-11.868,11.868-11.868s11.868,5.425,11.868,11.868v94.601   C395.02,335.343,331.952,398.411,254.644,398.411z"
   style="fill:#2b0000" />
	<rect
   id="rect10"
   height="23.735"
   width="185.812"
   style="fill:#2b0000"
   y="455.375"
   x="161.738" />
</g><g
     style="fill:#2b1100"
     id="g26"
     inkscape:export-xdpi="96"
     inkscape:export-ydpi="96">
	<path
   id="path14"
   d="M214.633,118.675h-52.217v29.16h52.217c8.138,0,14.58-6.442,14.58-14.58   C229.213,125.118,222.771,118.675,214.633,118.675z"
   style="fill:#2b1100" />
	<path
   id="path16"
   d="M214.633,167.163h-52.217v29.16h52.217c8.138,0,14.58-6.442,14.58-14.58   C229.213,173.605,222.771,167.163,214.633,167.163z"
   style="fill:#2b1100" />
	<path
   id="path18"
   d="M214.633,215.65h-52.217v29.16h52.217c8.138,0,14.58-6.442,14.58-14.58   C229.213,222.093,222.771,215.65,214.633,215.65z"
   style="fill:#2b1100" />
	<path
   id="path20"
   d="M294.654,244.811h52.217v-29.16h-52.217c-8.138,0-14.58,6.442-14.58,14.58   C280.074,238.029,286.517,244.811,294.654,244.811z"
   style="fill:#2b1100" />
	<path
   id="path22"
   d="M294.654,196.323h52.217v-29.16h-52.217c-8.138,0-14.58,6.442-14.58,14.58   C280.074,189.881,286.517,196.323,294.654,196.323z"
   style="fill:#2b1100" />
	<path
   id="path24"
   d="M294.654,147.836h52.217v-29.16h-52.217c-8.138,0-14.58,6.442-14.58,14.58   S286.517,147.836,294.654,147.836z"
   style="fill:#2b1100" />
</g></g>
<g
   id="g28">
</g>
<g
   id="g30">
</g>
<g
   id="g32">
</g>
<g
   id="g34">
</g>
<g
   id="g36">
</g>
<g
   id="g38">
</g>
<g
   id="g40">
</g>
<g
   id="g42">
</g>
<g
   id="g44">
</g>
<g
   id="g46">
</g>
<g
   id="g48">
</g>
<g
   id="g50">
</g>
<g
   id="g52">
</g>
<g
   id="g54">
</g>
<g
   id="g56">
</g>
</svg>